<svg viewBox="0 0 210 70" fill="none" xmlns="http://www.w3.org/2000/svg">
<g clip-path="url(#clip0_7468_6307)">
<path d="M82.6843 58.2398C79.5225 63.3334 72.9014 67.4907 66.5779 67.4907C57.7622 67.4907 53.2241 60.5993 54.3028 54.7192C56.1999 43.9327 63.3046 38.7267 70.93 38.7267C74.7613 38.7267 79.225 41.648 78.481 46.1424C77.9603 50.8241 73.1618 53.8203 68.7725 54.5319C67.4706 54.7941 66.02 54.6443 64.9784 54.3821C63.6021 61.2735 69.4421 62.4345 70.7068 62.4345C74.3149 62.4345 78.7786 59.1387 80.8988 56.1424C81.9404 54.9439 84.507 55.5432 82.7215 58.2023L82.6843 58.2398ZM65.7224 51.3484C68.5494 50.8241 72.3435 48.2398 72.5667 44.7192C72.6411 43.5956 72.4179 43.0713 71.9715 43.0713C70.93 43.0713 67.8426 44.7192 65.7224 51.3484Z" fill="currentColor"/>
<path d="M120.402 57.9775C118.096 61.4981 109.577 68.5767 101.989 67.3033C97.7859 66.5917 97.5255 62.4719 98.0463 60.3371L102.138 45.9925C102.324 45.2809 102.398 43.7453 101.096 43.7453C99.5342 43.7453 97.228 45.543 95.1077 47.8277L91.0904 62.1723C90.83 63.0337 91.0904 63.4831 91.4252 63.97L92.0947 64.5693C91.4996 65.0936 90.83 65.5805 90.1233 65.955C88.8586 66.6666 87.0359 67.3408 84.8785 67.3408C81.1216 67.3408 78.9641 64.9063 79.6709 62.2472L84.8785 43.6704C85.1389 42.8839 84.8785 42.3595 84.6181 41.8726L83.9485 41.2734C84.5437 40.8239 85.2133 40.3371 85.92 39.8876C87.1847 39.176 88.8958 38.4269 91.1648 38.4269C94.401 38.4269 96.4096 40.2247 96.484 42.5468C99.311 40.2247 102.733 38.4269 107.011 38.4269C110.098 38.4269 115.157 40.412 113.892 44.6442L109.503 60.3745C109.429 60.9738 109.577 61.6479 110.619 61.6479C113.632 61.6479 116.682 58.3895 118.579 55.955C119.621 54.7565 122.187 55.2434 120.402 57.94V57.9775Z" fill="currentColor"/>
<path d="M134.017 45.2436C134.017 43.7081 136.248 43.3335 136.248 42.5845C136.248 42.2474 136.137 41.1987 134.203 41.1987C132.826 41.1987 130.669 42.4721 130.669 44.8317C130.669 48.7268 139.819 51.4609 139.819 58.0526C139.819 63.6706 133.124 67.9777 125.759 67.9777C120.105 67.9777 116.236 63.9328 116.236 59.8504C116.236 56.4796 118.208 55.0938 120.291 55.0938C122.374 55.0938 123.378 56.8167 123.378 58.1275C123.378 59.4384 122.448 59.8504 122.448 60.562C122.448 61.6856 123.75 62.8841 124.754 62.8841C126.28 62.8841 127.73 61.6856 127.73 59.9253C127.73 57.4908 119.696 54.4946 119.696 47.4908C119.696 42.9215 125.275 38.0901 132.045 38.0901C138.815 38.0901 141.902 41.1987 141.902 44.195C141.902 47.1912 138.629 48.0152 137.29 48.0152C135.393 48.0152 134.017 46.7418 134.017 45.2436Z" fill="currentColor"/>
<path d="M171.474 58.2398C168.313 63.3334 161.691 67.4907 155.368 67.4907C146.552 67.4907 142.014 60.5993 143.093 54.7192C144.99 43.9327 152.095 38.7267 159.72 38.7267C163.551 38.7267 168.015 41.648 167.271 46.1424C166.75 50.8241 161.952 53.8203 157.563 54.5319C156.261 54.7941 154.81 54.6443 153.768 54.3821C152.392 61.2735 158.232 62.4345 159.497 62.4345C163.105 62.4345 167.569 59.1387 169.689 56.1424C170.73 54.9439 173.297 55.5432 171.512 58.2023L171.474 58.2398ZM154.512 51.3484C157.339 50.8241 161.134 48.2398 161.357 44.7192C161.431 43.5956 161.208 43.0713 160.762 43.0713C159.72 43.0713 156.633 44.7192 154.512 51.3484Z" fill="currentColor"/>
<path d="M34.6254 17.5655C33.4723 14.9438 24.6565 11.4981 22.0527 12.6592C24.6565 11.4981 28.0787 2.62172 26.9256 0C28.0787 2.62172 36.8944 6.06742 39.4982 4.90637C36.8944 6.06742 33.4723 14.9438 34.6254 17.5655Z" fill="currentColor"/>
<path d="M65.4251 11.0113C63.9744 9.47576 62.1517 8.35217 60.0687 7.64056C55.047 5.99262 48.8351 7.19112 45.5989 11.6106C44.7434 12.8091 44.1482 14.0825 43.7391 15.4308C42.6232 19.1012 42.9579 23.2211 43.7019 26.8915C44.7806 32.472 45.2642 38.1274 43.2183 43.5956C41.1725 49.0638 36.4484 54.2698 30.7944 55.5806C26.6284 56.5544 21.9043 55.693 18.3334 53.296C11.0055 48.3896 11.0427 34.6818 19.3005 30.7117C22.9458 28.9514 27.3351 29.7005 30.2737 32.472C31.2408 33.3709 32.022 34.4945 32.5799 35.7304C32.8775 36.3671 32.9891 37.0788 33.1379 37.7904C33.2495 38.3896 33.2123 39.2885 33.9934 39.326C34.7745 39.3634 35.4441 38.8765 35.8905 38.3147C38.0107 35.8053 38.3083 31.8353 36.8576 28.9514C35.1465 25.5432 31.2036 22.8091 27.0003 22.0975C19.6353 20.8615 12.2702 22.884 7.28579 27.4907C7.02541 27.7155 6.80223 27.9402 6.57905 28.2024C-0.0420606 34.9065 -1.82753 46.1424 2.22697 54.9439C6.13268 63.4083 15.246 69.4383 24.8429 69.9627C25.3264 69.9627 25.81 69.9627 26.2564 69.9627C30.6085 69.9627 34.7001 68.8765 38.1223 66.8166C42.0652 64.4196 46.3429 60.5245 48.8351 55.5806C52.9268 47.4533 52.964 38.1274 51.4761 29.3259C50.8809 25.9552 49.765 21.7979 51.8481 18.7642C53.15 16.854 55.3446 15.8053 57.5392 16.854C58.5808 17.3409 59.3619 18.2398 59.8455 19.3259C60.2174 20.1874 60.3662 21.1237 60.329 22.0226C60.2547 24.0825 59.3247 26.105 58.3204 27.9776C58.1716 28.2773 58.1716 28.6143 58.3204 28.914C58.5064 29.2136 58.804 29.3634 59.1015 29.3634C63.156 29.2885 66.9873 26.2922 68.2149 22.2847C69.4052 18.4645 68.2892 14.0451 65.4251 11.0113Z" fill="currentColor"/>
</g>
<rect x="172.069" width="37.8623" height="24.0002" rx="4" fill="#EBF4FF"/>
<path d="M198.96 17.3582C198.339 17.3582 197.848 17.1361 197.485 16.6919C197.122 16.2476 196.941 15.6221 196.941 14.8152C196.941 13.8859 197.1 13.0201 197.417 12.2177C197.739 11.4108 198.181 10.7762 198.743 10.3138C199.305 9.85143 199.926 9.62024 200.606 9.62024C201.028 9.62024 201.397 9.7313 201.714 9.95342C202.036 10.1755 202.292 10.4951 202.483 10.9122H202.558L203 9.75623H203.931L202.347 17.2222H201.374L201.551 15.8419H201.497C200.713 16.8528 199.867 17.3582 198.96 17.3582ZM199.368 16.3451C199.795 16.3451 200.221 16.1411 200.647 15.7331C201.077 15.3251 201.422 14.7948 201.68 14.142C201.939 13.4847 202.068 12.8161 202.068 12.1361C202.068 11.6919 201.946 11.3337 201.701 11.0618C201.456 10.7852 201.132 10.647 200.728 10.647C200.271 10.647 199.844 10.8396 199.45 11.225C199.06 11.6057 198.754 12.1202 198.532 12.7685C198.31 13.4167 198.199 14.108 198.199 14.8424C198.199 15.3455 198.301 15.7218 198.505 15.9711C198.709 16.2204 198.997 16.3451 199.368 16.3451Z" fill="currentColor"/>
<path d="M194.761 16.3586C195.042 16.3586 195.37 16.2974 195.747 16.175V17.1134C195.62 17.1769 195.436 17.2335 195.196 17.2834C194.96 17.3332 194.754 17.3582 194.577 17.3582C193.997 17.3582 193.555 17.2222 193.251 16.9502C192.947 16.6782 192.795 16.2725 192.795 15.7331C192.795 15.4429 192.836 15.112 192.918 14.7403L193.768 10.6877H192.612L192.721 10.137L193.979 9.60659L194.842 8.05627H195.563L195.189 9.75618H197.066L196.875 10.6877H195.005L194.142 14.7607C194.06 15.1279 194.019 15.4044 194.019 15.5903C194.019 15.8079 194.076 15.9915 194.189 16.141C194.303 16.2861 194.493 16.3586 194.761 16.3586Z" fill="currentColor"/>
<path d="M189.729 10.6334C189.262 10.6334 188.822 10.8532 188.41 11.293C187.997 11.7281 187.698 12.297 187.512 12.9997H187.614C188.603 12.9997 189.369 12.8682 189.913 12.6053C190.457 12.3424 190.729 11.9593 190.729 11.4561C190.729 11.2159 190.647 11.0187 190.484 10.8646C190.321 10.7104 190.069 10.6334 189.729 10.6334ZM188.77 17.3582C187.927 17.3582 187.265 17.1112 186.785 16.6171C186.304 16.1184 186.064 15.4294 186.064 14.55C186.064 13.6978 186.229 12.8841 186.56 12.1089C186.896 11.3337 187.347 10.7263 187.914 10.2866C188.48 9.84236 189.108 9.62024 189.797 9.62024C190.504 9.62024 191.037 9.77436 191.395 10.0826C191.753 10.3863 191.932 10.8124 191.932 11.3609C191.932 12.186 191.551 12.8319 190.79 13.2988C190.028 13.7612 188.954 13.9924 187.567 13.9924H187.336L187.308 14.5092C187.308 15.0803 187.444 15.5291 187.716 15.8555C187.993 16.1819 188.417 16.3451 188.988 16.3451C189.337 16.3451 189.67 16.2952 189.987 16.1955C190.309 16.0958 190.654 15.9552 191.021 15.7739V16.8211C190.572 17.0296 190.18 17.1701 189.845 17.2426C189.509 17.3197 189.151 17.3582 188.77 17.3582Z" fill="currentColor"/>
<path d="M181.428 17.3582C180.997 17.3582 180.614 17.2471 180.279 17.025C179.943 16.8029 179.689 16.4878 179.517 16.0799H179.449L178.994 17.2222H178.069L180.313 6.64197H181.537L181.006 9.14423C180.925 9.54768 180.827 9.96699 180.714 10.4022C180.601 10.8373 180.528 11.0867 180.496 11.1501H180.551C181.013 10.588 181.437 10.1959 181.822 9.97379C182.212 9.74714 182.609 9.63381 183.012 9.63381C183.656 9.63381 184.157 9.85593 184.515 10.3002C184.878 10.7399 185.059 11.3632 185.059 12.1701C185.059 13.1084 184.905 13.981 184.597 14.7879C184.288 15.5903 183.855 16.2204 183.298 16.6782C182.745 17.1315 182.122 17.3582 181.428 17.3582ZM182.625 10.647C182.194 10.647 181.759 10.8623 181.319 11.2929C180.884 11.719 180.539 12.2562 180.286 12.9044C180.036 13.5481 179.912 14.1941 179.912 14.8423C179.912 15.3138 180.032 15.6832 180.272 15.9507C180.517 16.2136 180.87 16.345 181.333 16.345C181.777 16.345 182.19 16.1592 182.57 15.7875C182.951 15.4158 183.253 14.9013 183.475 14.244C183.697 13.5821 183.808 12.8863 183.808 12.1565C183.808 11.1501 183.414 10.647 182.625 10.647Z" fill="currentColor"/>
<defs>
<clipPath id="clip0_7468_6307">
<rect width="172" height="70" fill="white" transform="translate(0.0688477)"/>
</clipPath>
</defs>
</svg>
