<svg width="24" height="24" viewBox="0 0 24 24" fill="none" xmlns="http://www.w3.org/2000/svg">
<g clip-path="url(#clip0_1105_2079)">
<path d="M18.6667 20H10.6667V14.6667H9.33333V20H5.33333V14.6667H4V20C4 20.3536 4.14048 20.6928 4.39052 20.9428C4.64057 21.1928 4.97971 21.3333 5.33333 21.3333H18.6667C19.0203 21.3333 19.3594 21.1928 19.6095 20.9428C19.8595 20.6928 20 20.3536 20 20V14.6667H18.6667V20Z" fill="currentColor"/>
<path d="M22.5267 8.84666L19.8067 3.40666C19.6963 3.18451 19.5261 2.99757 19.3153 2.86684C19.1045 2.73612 18.8614 2.66679 18.6133 2.66666H5.38666C5.1386 2.66679 4.8955 2.73612 4.68469 2.86684C4.47387 2.99757 4.30371 3.18451 4.19332 3.40666L1.47332 8.84666C1.38045 9.03298 1.33251 9.23847 1.33332 9.44666V11.5C1.33271 11.8115 1.44122 12.1134 1.63999 12.3533C1.93376 12.6901 2.29659 12.9596 2.70381 13.1437C3.11103 13.3278 3.55311 13.422 3.99999 13.42C4.72917 13.4211 5.43611 13.169 5.99999 12.7067C6.56386 13.1692 7.27065 13.4221 7.99999 13.4221C8.72933 13.4221 9.43612 13.1692 9.99999 12.7067C10.5639 13.1692 11.2707 13.4221 12 13.4221C12.7293 13.4221 13.4361 13.1692 14 12.7067C14.5639 13.1692 15.2707 13.4221 16 13.4221C16.7293 13.4221 17.4361 13.1692 18 12.7067C18.6294 13.2235 19.4347 13.4761 20.2466 13.4115C21.0584 13.3468 21.8136 12.9699 22.3533 12.36C22.5545 12.121 22.6654 11.819 22.6667 11.5067V9.44666C22.6675 9.23847 22.6195 9.03298 22.5267 8.84666ZM20 12.0867C19.7152 12.086 19.4348 12.0173 19.182 11.8862C18.9292 11.7552 18.7113 11.5656 18.5467 11.3333L18 10.5867L17.46 11.3333C17.2922 11.5621 17.0729 11.7481 16.8198 11.8763C16.5667 12.0045 16.287 12.0713 16.0033 12.0713C15.7196 12.0713 15.4399 12.0045 15.1869 11.8763C14.9338 11.7481 14.7145 11.5621 14.5467 11.3333L14 10.5867L13.46 11.3333C13.2922 11.5621 13.0729 11.7481 12.8198 11.8763C12.5667 12.0045 12.287 12.0713 12.0033 12.0713C11.7196 12.0713 11.4399 12.0045 11.1869 11.8763C10.9338 11.7481 10.7145 11.5621 10.5467 11.3333L9.99999 10.5867L9.45999 11.3333C9.29217 11.5621 9.07285 11.7481 8.81979 11.8763C8.56672 12.0045 8.28701 12.0713 8.00332 12.0713C7.71963 12.0713 7.43993 12.0045 7.18686 11.8763C6.93379 11.7481 6.71447 11.5621 6.54666 11.3333L5.99999 10.5867L5.45332 11.3333C5.28864 11.5656 5.07081 11.7552 4.81801 11.8862C4.5652 12.0173 4.28474 12.086 3.99999 12.0867C3.74875 12.0897 3.49976 12.0389 3.26978 11.9377C3.0398 11.8365 2.83415 11.6873 2.66666 11.5V9.44666L5.38666 3.99999H18.6133L21.3333 9.43999V11.48C21.1668 11.6699 20.9618 11.8222 20.732 11.9268C20.5021 12.0314 20.2526 12.0859 20 12.0867Z" fill="currentColor"/>
</g>
<defs>
<clipPath id="clip0_1105_2079">
<rect width="24" height="24" fill="white"/>
</clipPath>
</defs>
</svg>
